<svg width="195" height="46" viewBox="0 0 195 46" fill="none" xmlns="http://www.w3.org/2000/svg">
<path d="M89.7565 7.5489C89.9229 7.20789 90.006 6.8357 90.006 6.43231V0.662187H91.1725V6.39488C91.1725 6.72757 91.1289 7.04779 91.0415 7.35553C90.9584 7.65911 90.8336 7.95021 90.6673 8.22884C90.9001 8.39519 91.106 8.53034 91.2848 8.63431C91.5052 8.75907 91.7298 8.86303 91.9585 8.94621L91.5468 10.0129C91.2765 9.93389 90.9958 9.80705 90.7047 9.63238C90.4718 9.49515 90.2181 9.32049 89.9436 9.10839C89.6359 9.37871 89.2907 9.58872 88.9081 9.73843C88.5297 9.88814 88.1367 9.963 87.7292 9.963C86.8143 9.963 86.02 9.63654 85.3463 8.98363C84.631 8.2933 84.2733 7.43038 84.2733 6.39488V0.662187H85.4274V6.43231C85.4274 7.14759 85.6561 7.7402 86.1135 8.21013C86.5544 8.66342 87.0929 8.89007 87.7292 8.89007C88.2116 8.89007 88.6482 8.74035 89.0391 8.44093C88.8229 8.29122 88.6316 8.17478 88.4652 8.09161C88.2615 7.9918 88.0515 7.91902 87.8352 7.87328L88.1908 6.76916C88.4652 6.82322 88.7397 6.92303 89.0142 7.06858C89.2263 7.18086 89.4737 7.34097 89.7565 7.5489Z" fill="black"/>
<path d="M100.127 2.22168L98.5857 1.57917L99.0286 0.5L103.539 2.44001L103.09 3.52541L102.116 3.09499C101.913 3.0035 101.646 2.95776 101.318 2.95776C100.831 2.95776 100.364 3.04925 99.9144 3.23223C99.3779 3.44848 98.9538 3.76246 98.6419 4.17416C98.2717 4.66072 98.0867 5.25333 98.0867 5.95198C98.0867 6.78371 98.3092 7.47613 98.7542 8.02923C99.2158 8.60312 99.8104 8.89007 100.538 8.89007C101.237 8.89007 101.817 8.63223 102.279 8.11656C102.719 7.62168 102.94 7.03323 102.94 6.35121V5.95198H104.094V6.37616C104.094 7.34097 103.742 8.18102 103.04 8.8963C102.341 9.60743 101.511 9.963 100.551 9.963C99.5485 9.963 98.7001 9.60119 98.0056 8.87759C97.2945 8.13735 96.9389 7.21413 96.9389 6.10793C96.9389 5.13481 97.2258 4.28229 97.7997 3.55037C98.4027 2.78518 99.1783 2.34228 100.127 2.22168Z" fill="black"/>
<path d="M118.163 6.78787C118.163 7.63208 117.97 8.34112 117.583 8.91502C117.109 9.61783 116.41 9.96923 115.487 9.96923C114.568 9.96923 113.855 9.6511 113.347 9.01482C112.886 8.43677 112.655 7.69446 112.655 6.78787V4.26149H110.821V9.80705H109.667V0.662187H110.821V3.18233H113.809V6.6943C113.809 7.42206 113.946 7.971 114.221 8.34112C114.495 8.70708 114.923 8.89007 115.506 8.89007C116.005 8.89007 116.383 8.68421 116.641 8.27251C116.886 7.88575 117.009 7.34929 117.009 6.66311V3.18233H118.163V6.78787Z" fill="black"/>
<path d="M129.35 7.5489C129.516 7.20789 129.6 6.8357 129.6 6.43231V0.662187H130.766V6.39488C130.766 6.72757 130.722 7.04779 130.635 7.35553C130.552 7.65911 130.427 7.95021 130.261 8.22884C130.494 8.39519 130.7 8.53034 130.878 8.63431C131.099 8.75907 131.323 8.86303 131.552 8.94621L131.14 10.0129C130.87 9.93389 130.589 9.80705 130.298 9.63238C130.065 9.49515 129.812 9.32049 129.537 9.10839C129.23 9.37871 128.884 9.58872 128.502 9.73843C128.123 9.88814 127.73 9.963 127.323 9.963C126.408 9.963 125.614 9.63654 124.94 8.98363C124.225 8.2933 123.867 7.43038 123.867 6.39488V0.662187H125.021V6.43231C125.021 7.14759 125.25 7.7402 125.707 8.21013C126.148 8.66342 126.687 8.89007 127.323 8.89007C127.805 8.89007 128.242 8.74035 128.633 8.44093C128.417 8.29122 128.225 8.17478 128.059 8.09161C127.855 7.9918 127.645 7.91902 127.429 7.87328L127.784 6.76916C128.059 6.82322 128.333 6.92303 128.608 7.06858C128.82 7.18086 129.067 7.34097 129.35 7.5489Z" fill="black"/>
<path d="M136.283 6.86896H137.381C137.389 7.13928 137.456 7.40543 137.581 7.66742C137.709 7.92942 137.88 8.14983 138.092 8.32865C138.308 8.50747 138.56 8.64471 138.847 8.74035C139.134 8.83184 139.439 8.87759 139.764 8.87759C140.088 8.87759 140.394 8.85056 140.681 8.7965C140.972 8.73827 141.226 8.64471 141.442 8.51579C141.662 8.38687 141.835 8.22052 141.96 8.01675C142.088 7.81298 142.153 7.56138 142.153 7.26196C142.153 6.96253 142.088 6.70678 141.96 6.49469C141.835 6.27844 141.662 6.09962 141.442 5.95822C141.226 5.81683 140.972 5.71286 140.681 5.64632C140.394 5.57978 140.088 5.54651 139.764 5.54651C139.352 5.54651 138.957 5.50493 138.579 5.42176C138.2 5.33442 137.865 5.19511 137.574 5.00381C137.283 4.80836 137.05 4.55468 136.876 4.24278C136.705 3.93088 136.62 3.54621 136.62 3.08876C136.62 2.71864 136.697 2.37763 136.851 2.06573C137.009 1.74967 137.225 1.47728 137.499 1.24856C137.778 1.01567 138.109 0.834771 138.491 0.705853C138.878 0.572776 139.302 0.506238 139.764 0.506238C140.267 0.506238 140.718 0.576935 141.117 0.718329C141.521 0.855564 141.862 1.04686 142.14 1.29222C142.419 1.53758 142.633 1.82661 142.783 2.1593C142.933 2.49199 143.008 2.83508 143.008 3.18856H141.897C141.881 2.97231 141.822 2.75399 141.723 2.53358C141.623 2.30901 141.481 2.12603 141.298 1.98464C141.12 1.84324 140.901 1.73928 140.643 1.67274C140.386 1.6062 140.092 1.57293 139.764 1.57293C139.439 1.57293 139.152 1.61244 138.903 1.69145C138.653 1.76631 138.441 1.87235 138.267 2.00959C138.096 2.14682 137.965 2.30901 137.874 2.49615C137.786 2.67913 137.743 2.87667 137.743 3.08876C137.743 3.28837 137.77 3.47343 137.824 3.64394C137.882 3.81444 137.986 3.95999 138.136 4.08059C138.285 4.20119 138.491 4.29684 138.753 4.36754C139.015 4.43408 139.352 4.46735 139.764 4.46735C140.313 4.46735 140.803 4.53596 141.236 4.6732C141.668 4.80628 142.036 4.99549 142.34 5.24085C142.644 5.48621 142.874 5.78148 143.032 6.12665C143.195 6.46766 143.276 6.84609 143.276 7.26196C143.276 7.67782 143.193 8.0521 143.026 8.38479C142.86 8.71748 142.623 9.00235 142.315 9.23939C142.012 9.47228 141.643 9.6511 141.211 9.77586C140.778 9.90062 140.296 9.963 139.764 9.963C139.231 9.963 138.751 9.88398 138.323 9.72595C137.894 9.56792 137.529 9.3496 137.225 9.07097C136.921 8.79234 136.688 8.46588 136.526 8.09161C136.364 7.71317 136.283 7.30562 136.283 6.86896Z" fill="black"/>
<path d="M154.033 7.5489C154.199 7.20789 154.282 6.8357 154.282 6.43231V0.662187H155.449V6.39488C155.449 6.72757 155.405 7.04779 155.318 7.35553C155.234 7.65911 155.11 7.95021 154.943 8.22884C155.176 8.39519 155.382 8.53034 155.561 8.63431C155.781 8.75907 156.006 8.86303 156.235 8.94621L155.823 10.0129C155.553 9.93389 155.272 9.80705 154.981 9.63238C154.748 9.49515 154.494 9.32049 154.22 9.10839C153.912 9.37871 153.567 9.58872 153.184 9.73843C152.806 9.88814 152.413 9.963 152.005 9.963C151.09 9.963 150.296 9.63654 149.622 8.98363C148.907 8.2933 148.549 7.43038 148.549 6.39488V0.662187H149.703V6.43231C149.703 7.14759 149.932 7.7402 150.39 8.21013C150.83 8.66342 151.369 8.89007 152.005 8.89007C152.488 8.89007 152.924 8.74035 153.315 8.44093C153.099 8.29122 152.908 8.17478 152.741 8.09161C152.537 7.9918 152.327 7.91902 152.111 7.87328L152.467 6.76916C152.741 6.82322 153.016 6.92303 153.29 7.06858C153.502 7.18086 153.75 7.34097 154.033 7.5489Z" fill="black"/>
<path d="M160.123 0.662187H162.837V6.35121C162.837 7.11225 163.076 7.73604 163.554 8.2226C163.995 8.67174 164.519 8.8963 165.126 8.8963C165.771 8.8963 166.307 8.6759 166.736 8.23508C167.193 7.76515 167.422 7.1372 167.422 6.35121V5.30947H168.576V6.43231C168.576 7.42206 168.228 8.26211 167.534 8.95245C166.856 9.62615 166.053 9.963 165.126 9.963C164.261 9.963 163.483 9.63654 162.793 8.98363C162.049 8.28082 161.677 7.43038 161.677 6.43231V1.74136H160.123V0.662187Z" fill="black"/>
<path d="M180.299 9.02106H174.941V9.84447H173.787V9.02106H172.982V7.94189H173.787V3.61275C173.787 2.78102 174.072 2.07197 174.642 1.4856C175.253 0.857643 176.043 0.543666 177.012 0.543666C177.985 0.543666 178.771 0.859723 179.37 1.49184C179.927 2.07821 180.206 2.78725 180.206 3.61898C180.206 4.46735 179.925 5.17848 179.364 5.75237C178.761 6.36785 177.962 6.67559 176.968 6.67559C176.498 6.67559 176.103 6.60905 175.783 6.47597C175.467 6.33874 175.186 6.13288 174.941 5.85841V7.94189H180.299V9.02106ZM179.046 3.60651C179.046 3.03677 178.865 2.56685 178.503 2.19673C178.124 1.80997 177.625 1.6166 177.006 1.6166C176.382 1.6166 175.881 1.80789 175.502 2.19049C175.128 2.56893 174.941 3.04093 174.941 3.60651C174.941 4.17208 175.128 4.64617 175.502 5.02876C175.881 5.4072 176.382 5.59642 177.006 5.59642C177.625 5.59642 178.124 5.40304 178.503 5.01629C178.865 4.64617 179.046 4.17624 179.046 3.60651Z" fill="black"/>
<path d="M187.026 9.80705H185.872V0.662187H187.026V4.05564C187.234 3.69384 187.586 3.41521 188.081 3.21975C188.488 3.05757 188.896 2.97647 189.303 2.97647C190.285 2.97647 191.108 3.3362 191.773 4.05564C192.439 4.77509 192.772 5.64632 192.772 6.66935V7.43662H191.605V6.52588C191.605 5.88544 191.405 5.32403 191.006 4.84162C190.57 4.31348 190.006 4.0494 189.316 4.0494C188.654 4.0494 188.108 4.29476 187.675 4.78548C187.243 5.27204 187.026 5.89376 187.026 6.65064V9.80705Z" fill="black"/>
<path d="M93.7176 23.2277H92.3203V25.1178C92.3203 25.858 92.0812 26.4777 91.6029 26.9767C91.1289 27.4716 90.5134 27.719 89.7565 27.719C89.087 27.719 88.4964 27.509 87.9849 27.089C87.357 26.5733 87.043 25.858 87.043 24.9431C87.043 24.128 87.2884 23.4585 87.7791 22.9345C88.2698 22.4105 88.8915 22.1485 89.6442 22.1485H91.1725V21.9364C91.1725 21.2045 90.9022 20.589 90.3616 20.09C89.8085 19.5785 89.1202 19.3227 88.2968 19.3227C87.4693 19.3227 86.7831 19.593 86.2383 20.1337C85.6977 20.6701 85.4274 21.3293 85.4274 22.1111V27.5506H84.2733V21.9676C84.2733 20.9571 84.6393 20.0941 85.3712 19.3789C86.1406 18.6261 87.122 18.2498 88.3155 18.2498C89.4384 18.2498 90.3949 18.6178 91.185 19.3539C91.9419 20.0609 92.3203 20.8697 92.3203 21.7805V22.1485H93.7176V23.2277ZM91.1663 25.0804V23.2277H89.7627C89.3219 23.2277 88.9622 23.3649 88.6836 23.6394C88.3592 23.9554 88.197 24.4129 88.197 25.0117C88.197 25.5066 88.353 25.9059 88.6649 26.2094C88.9601 26.4964 89.3323 26.6399 89.7815 26.6399C90.1474 26.6399 90.4593 26.5151 90.7172 26.2656C91.0166 25.9786 91.1663 25.5836 91.1663 25.0804Z" fill="black"/>
<path d="M101.992 27.5506H100.826V21.768C100.826 21.0652 100.591 20.4767 100.121 20.0027C99.6716 19.5494 99.1476 19.3227 98.5488 19.3227C97.9333 19.3227 97.4093 19.5348 96.9768 19.959C96.4903 20.4372 96.247 21.0818 96.247 21.8928V27.5506H95.093V21.9302C95.093 20.824 95.4506 19.9216 96.1659 19.2229C96.8313 18.5742 97.6256 18.2498 98.5488 18.2498C99.4762 18.2498 100.281 18.6012 100.963 19.304C101.649 20.0027 101.992 20.8365 101.992 21.8054V27.5506Z" fill="black"/>
<path d="M108.645 22.0113H105.208V27.5506H104.054V18.4057H105.208V20.9259H108.645V22.0113Z" fill="black"/>
<path d="M117.05 24.7997C117.05 25.6106 116.732 26.2905 116.096 26.8395C115.426 27.4175 114.559 27.7065 113.495 27.7065C112.476 27.7065 111.642 27.4258 110.993 26.8644C110.345 26.2988 110.02 25.6044 110.02 24.7809H111.174C111.174 25.28 111.384 25.7062 111.804 26.0597C112.253 26.4382 112.825 26.6274 113.52 26.6274C114.202 26.6274 114.767 26.459 115.216 26.1221C115.666 25.7811 115.89 25.3652 115.89 24.8745C115.89 24.4087 115.724 24.0324 115.391 23.7454C114.992 23.4003 114.391 23.2277 113.588 23.2277H109.902V22.1485H113.613C114.158 22.1485 114.593 22.0258 114.917 21.7805C115.246 21.5351 115.41 21.1983 115.41 20.7699C115.41 20.4164 115.268 20.1004 114.986 19.8218C114.653 19.4932 114.214 19.329 113.669 19.329C113.129 19.329 112.686 19.4953 112.341 19.828C112.02 20.1357 111.86 20.5017 111.86 20.9259H110.706C110.706 20.2064 110.991 19.5847 111.561 19.0607C112.147 18.5201 112.858 18.2498 113.694 18.2498C114.505 18.2498 115.191 18.5055 115.753 19.0171C116.293 19.5078 116.564 20.0734 116.564 20.7138C116.564 21.1504 116.481 21.531 116.314 21.8553C116.131 22.213 115.863 22.4604 115.51 22.5977C115.996 22.739 116.383 23.0364 116.67 23.4897C116.924 23.8931 117.05 24.3297 117.05 24.7997Z" fill="black"/>
<path d="M118.993 27.5506V18.4057H120.154V26.4714H124.477V27.5506H118.993Z" fill="black"/>
<path d="M125.421 24.6125H126.519C126.528 24.8828 126.594 25.149 126.719 25.411C126.848 25.673 127.018 25.8934 127.23 26.0722C127.447 26.251 127.698 26.3883 127.985 26.4839C128.272 26.5754 128.578 26.6211 128.902 26.6211C129.227 26.6211 129.532 26.5941 129.819 26.54C130.11 26.4818 130.364 26.3883 130.58 26.2593C130.801 26.1304 130.973 25.9641 131.098 25.7603C131.227 25.5565 131.291 25.3049 131.291 25.0055C131.291 24.7061 131.227 24.4503 131.098 24.2382C130.973 24.022 130.801 23.8432 130.58 23.7018C130.364 23.5604 130.11 23.4564 129.819 23.3899C129.532 23.3233 129.227 23.2901 128.902 23.2901C128.491 23.2901 128.095 23.2485 127.717 23.1653C127.339 23.078 127.004 22.9387 126.713 22.7474C126.422 22.5519 126.189 22.2982 126.014 21.9863C125.844 21.6744 125.758 21.2898 125.758 20.8323C125.758 20.4622 125.835 20.1212 125.989 19.8093C126.147 19.4932 126.363 19.2208 126.638 18.9921C126.916 18.7592 127.247 18.5783 127.63 18.4494C128.016 18.3163 128.441 18.2498 128.902 18.2498C129.405 18.2498 129.857 18.3205 130.256 18.4619C130.659 18.5991 131 18.7904 131.279 19.0358C131.558 19.2811 131.772 19.5702 131.921 19.9028C132.071 20.2355 132.146 20.5786 132.146 20.9321H131.036C131.019 20.7159 130.961 20.4975 130.861 20.2771C130.761 20.0526 130.62 19.8696 130.437 19.7282C130.258 19.5868 130.04 19.4828 129.782 19.4163C129.524 19.3498 129.231 19.3165 128.902 19.3165C128.578 19.3165 128.291 19.356 128.041 19.435C127.792 19.5099 127.58 19.6159 127.405 19.7531C127.235 19.8904 127.104 20.0526 127.012 20.2397C126.925 20.4227 126.881 20.6202 126.881 20.8323C126.881 21.0319 126.908 21.217 126.962 21.3875C127.02 21.558 127.124 21.7035 127.274 21.8241C127.424 21.9447 127.63 22.0404 127.892 22.1111C128.154 22.1776 128.491 22.2109 128.902 22.2109C129.451 22.2109 129.942 22.2795 130.374 22.4167C130.807 22.5498 131.175 22.739 131.479 22.9844C131.782 23.2298 132.013 23.525 132.171 23.8702C132.333 24.2112 132.414 24.5896 132.414 25.0055C132.414 25.4214 132.331 25.7956 132.165 26.1283C131.998 26.461 131.761 26.7459 131.454 26.9829C131.15 27.2158 130.782 27.3946 130.349 27.5194C129.917 27.6442 129.435 27.7065 128.902 27.7065C128.37 27.7065 127.89 27.6275 127.461 27.4695C127.033 27.3115 126.667 27.0931 126.363 26.8145C126.06 26.5359 125.827 26.2094 125.665 25.8352C125.503 25.4567 125.421 25.0492 125.421 24.6125Z" fill="black"/>
<path d="M139.229 24.3069C139.021 24.6687 138.67 24.9473 138.175 25.1427C137.767 25.3049 137.36 25.386 136.952 25.386C135.971 25.386 135.147 25.0263 134.482 24.3069C133.817 23.5874 133.484 22.7162 133.484 21.6931V20.9259H134.65V21.8366C134.65 22.4771 134.85 23.0385 135.249 23.5209C135.686 24.049 136.249 24.3131 136.94 24.3131C137.601 24.3131 138.148 24.0698 138.58 23.5833C139.013 23.0967 139.229 22.4729 139.229 21.7119V18.4057H140.389V26.4714H141.961V27.5506H139.229V24.3069Z" fill="black"/>
<path d="M150.242 27.5506H149.076V21.768C149.076 21.0652 148.841 20.4767 148.371 20.0027C147.922 19.5494 147.398 19.3227 146.799 19.3227C146.183 19.3227 145.659 19.5348 145.227 19.959C144.74 20.4372 144.497 21.0818 144.497 21.8928V27.5506H143.343V21.9302C143.343 20.824 143.701 19.9216 144.416 19.2229C145.081 18.5742 145.876 18.2498 146.799 18.2498C147.726 18.2498 148.531 18.6012 149.213 19.304C149.899 20.0027 150.242 20.8365 150.242 21.8054V27.5506Z" fill="black"/>
<path d="M156.895 22.0113H153.458V27.5506H152.304V18.4057H153.458V20.9259H156.895V22.0113Z" fill="black"/>
<path d="M167.714 23.2277H166.317V25.1178C166.317 25.858 166.078 26.4777 165.6 26.9767C165.126 27.4716 164.51 27.719 163.753 27.719C163.084 27.719 162.493 27.509 161.982 27.089C161.354 26.5733 161.04 25.858 161.04 24.9431C161.04 24.128 161.285 23.4585 161.776 22.9345C162.267 22.4105 162.888 22.1485 163.641 22.1485H165.169V21.9364C165.169 21.2045 164.899 20.589 164.358 20.09C163.805 19.5785 163.117 19.3227 162.294 19.3227C161.466 19.3227 160.78 19.593 160.235 20.1337C159.694 20.6701 159.424 21.3293 159.424 22.1111V27.5506H158.27V21.9676C158.27 20.9571 158.636 20.0941 159.368 19.3789C160.137 18.6261 161.119 18.2498 162.312 18.2498C163.435 18.2498 164.392 18.6178 165.182 19.3539C165.939 20.0609 166.317 20.8697 166.317 21.7805V22.1485H167.714V23.2277ZM165.163 25.0804V23.2277H163.76C163.319 23.2277 162.959 23.3649 162.68 23.6394C162.356 23.9554 162.194 24.4129 162.194 25.0117C162.194 25.5066 162.35 25.9059 162.662 26.2094C162.957 26.4964 163.329 26.6399 163.778 26.6399C164.144 26.6399 164.456 26.5151 164.714 26.2656C165.013 25.9786 165.163 25.5836 165.163 25.0804Z" fill="black"/>
<path d="M176.12 24.7997C176.12 25.6106 175.802 26.2905 175.166 26.8395C174.496 27.4175 173.629 27.7065 172.564 27.7065C171.545 27.7065 170.712 27.4258 170.063 26.8644C169.414 26.2988 169.09 25.6044 169.09 24.7809H170.244C170.244 25.28 170.454 25.7062 170.874 26.0597C171.323 26.4382 171.895 26.6274 172.589 26.6274C173.271 26.6274 173.837 26.459 174.286 26.1221C174.735 25.7811 174.96 25.3652 174.96 24.8745C174.96 24.4087 174.793 24.0324 174.461 23.7454C174.061 23.4003 173.46 23.2277 172.658 23.2277H168.971V22.1485H172.683C173.228 22.1485 173.662 22.0258 173.987 21.7805C174.315 21.5351 174.479 21.1983 174.479 20.7699C174.479 20.4164 174.338 20.1004 174.055 19.8218C173.722 19.4932 173.284 19.329 172.739 19.329C172.198 19.329 171.755 19.4953 171.41 19.828C171.09 20.1357 170.93 20.5017 170.93 20.9259H169.776C169.776 20.2064 170.061 19.5847 170.631 19.0607C171.217 18.5201 171.928 18.2498 172.764 18.2498C173.575 18.2498 174.261 18.5055 174.822 19.0171C175.363 19.5078 175.633 20.0734 175.633 20.7138C175.633 21.1504 175.55 21.531 175.384 21.8553C175.201 22.213 174.933 22.4604 174.579 22.5977C175.066 22.739 175.452 23.0364 175.739 23.4897C175.993 23.8931 176.12 24.3297 176.12 24.7997Z" fill="black"/>
<path d="M183.484 25.2925C183.65 24.9514 183.733 24.5792 183.733 24.1759V18.4057H184.9V24.1384C184.9 24.4711 184.856 24.7913 184.769 25.0991C184.686 25.4027 184.561 25.6938 184.394 25.9724C184.627 26.1387 184.833 26.2739 185.012 26.3779C185.232 26.5026 185.457 26.6066 185.686 26.6898L185.274 27.7565C185.004 27.6774 184.723 27.5506 184.432 27.3759C184.199 27.2387 183.945 27.064 183.671 26.8519C183.363 27.1223 183.018 27.3323 182.635 27.482C182.257 27.6317 181.864 27.7065 181.456 27.7065C180.541 27.7065 179.747 27.3801 179.073 26.7272C178.358 26.0368 178.001 25.1739 178.001 24.1384V18.4057H179.155V24.1759C179.155 24.8911 179.383 25.4838 179.841 25.9537C180.282 26.407 180.82 26.6336 181.456 26.6336C181.939 26.6336 182.375 26.4839 182.766 26.1845C182.55 26.0348 182.359 25.9183 182.192 25.8352C181.989 25.7353 181.779 25.6626 181.562 25.6168L181.918 24.5127C182.192 24.5668 182.467 24.6666 182.741 24.8121C182.953 24.9244 183.201 25.0845 183.484 25.2925Z" fill="black"/>
<path d="M185.87 18.4057H188.583V24.0948C188.583 24.8558 188.822 25.4796 189.3 25.9662C189.741 26.4153 190.265 26.6399 190.872 26.6399C191.517 26.6399 192.054 26.4194 192.482 25.9786C192.939 25.5087 193.168 24.8807 193.168 24.0948V23.053H194.322V24.1759C194.322 25.1656 193.975 26.0057 193.28 26.696C192.602 27.3697 191.8 27.7065 190.872 27.7065C190.007 27.7065 189.23 27.3801 188.539 26.7272C187.795 26.0244 187.423 25.1739 187.423 24.1759V19.4849H185.87V18.4057Z" fill="black"/>
<path d="M89.7004 45.2941H88.5401V43.0298C88.5401 42.4767 88.3634 42.0026 88.0099 41.6075C87.6314 41.1833 87.1386 40.9712 86.5315 40.9712H84.0176V39.8921H86.4691C86.9515 39.8921 87.332 39.8006 87.6106 39.6176C87.9392 39.4013 88.1034 39.0645 88.1034 38.607C88.1034 38.1829 87.9662 37.8481 87.6917 37.6027C87.4173 37.3532 87.0721 37.2285 86.6562 37.2285H84.0176V36.1493H86.6812C87.4173 36.1493 88.0327 36.3593 88.5276 36.7793C89.0683 37.2368 89.3386 37.846 89.3386 38.607C89.3386 38.998 89.2284 39.3494 89.008 39.6613C88.7875 39.9732 88.5131 40.1936 88.1845 40.3225C88.5422 40.4306 88.877 40.728 89.1889 41.2145C89.5299 41.7427 89.7004 42.302 89.7004 42.8925V45.2941Z" fill="black"/>
<path d="M102.868 43.036C103.034 42.695 103.117 42.3228 103.117 41.9194V36.1493H104.284V41.882C104.284 42.2147 104.24 42.5349 104.153 42.8426C104.07 43.1462 103.945 43.4373 103.778 43.7159C104.011 43.8823 104.217 44.0174 104.396 44.1214C104.616 44.2462 104.841 44.3501 105.07 44.4333L104.658 45.5C104.388 45.421 104.107 45.2941 103.816 45.1195C103.583 44.9823 103.329 44.8076 103.055 44.5955C102.747 44.8658 102.402 45.0758 102.019 45.2255C101.641 45.3752 101.248 45.4501 100.84 45.4501C99.9255 45.4501 99.1312 45.1236 98.4575 44.4707C97.7422 43.7804 97.3845 42.9175 97.3845 41.882V36.1493H98.5386V41.9194C98.5386 42.6347 98.7673 43.2273 99.2247 43.6972C99.6656 44.1505 100.204 44.3772 100.84 44.3772C101.323 44.3772 101.759 44.2275 102.15 43.928C101.934 43.7783 101.743 43.6619 101.576 43.5787C101.373 43.4789 101.163 43.4061 100.946 43.3604L101.302 42.2563C101.576 42.3103 101.851 42.4101 102.125 42.5557C102.337 42.668 102.585 42.8281 102.868 43.036Z" fill="black"/>
<path d="M120.682 36.1493V37.2285H119.117V41.8945C119.117 42.8634 118.774 43.6993 118.087 44.4021C117.405 45.1008 116.601 45.4501 115.673 45.4501C114.754 45.4501 113.962 45.1257 113.297 44.477C112.577 43.7742 112.217 42.8717 112.217 41.7697V36.1493H113.371V41.8071C113.371 42.6222 113.613 43.2668 114.095 43.7409C114.528 44.1651 115.054 44.3772 115.673 44.3772C116.272 44.3772 116.794 44.1526 117.239 43.7035C117.713 43.2252 117.95 42.6347 117.95 41.9319V36.1493H120.682Z" fill="black"/>
<path d="M133.232 43.036C133.398 42.695 133.482 42.3228 133.482 41.9194V36.1493H134.648V41.882C134.648 42.2147 134.604 42.5349 134.517 42.8426C134.434 43.1462 134.309 43.4373 134.143 43.7159C134.376 43.8823 134.582 44.0174 134.76 44.1214C134.981 44.2462 135.205 44.3501 135.434 44.4333L135.022 45.5C134.752 45.421 134.471 45.2941 134.18 45.1195C133.947 44.9823 133.694 44.8076 133.419 44.5955C133.112 44.8658 132.766 45.0758 132.384 45.2255C132.005 45.3752 131.612 45.4501 131.205 45.4501C130.29 45.4501 129.496 45.1236 128.822 44.4707C128.107 43.7804 127.749 42.9175 127.749 41.882V36.1493H128.903V41.9194C128.903 42.6347 129.132 43.2273 129.589 43.6972C130.03 44.1505 130.569 44.3772 131.205 44.3772C131.687 44.3772 132.124 44.2275 132.515 43.928C132.299 43.7783 132.107 43.6619 131.941 43.5787C131.737 43.4789 131.527 43.4061 131.311 43.3604L131.666 42.2563C131.941 42.3103 132.215 42.4101 132.49 42.5557C132.702 42.668 132.949 42.8281 133.232 43.036Z" fill="black"/>
<path d="M148.258 38.6694H149.419V45.2941H148.258V42.0504C148.05 42.4122 147.699 42.6908 147.204 42.8863C146.797 43.0485 146.389 43.1296 145.982 43.1296C145.004 43.1296 144.183 42.7699 143.518 42.0504C142.852 41.331 142.519 40.4597 142.519 39.4367V36.1493H143.68V39.5802C143.68 40.2206 143.879 40.782 144.279 41.2644C144.715 41.7926 145.281 42.0566 145.975 42.0566C146.637 42.0566 147.181 41.8134 147.61 41.3268C148.042 40.8361 148.258 40.2123 148.258 39.4554V38.6694Z" fill="black"/>
<path d="M162.524 43.036C162.69 42.695 162.773 42.3228 162.773 41.9194V36.1493H163.94V41.882C163.94 42.2147 163.896 42.5349 163.809 42.8426C163.725 43.1462 163.601 43.4373 163.434 43.7159C163.667 43.8823 163.873 44.0174 164.052 44.1214C164.272 44.2462 164.497 44.3501 164.726 44.4333L164.314 45.5C164.044 45.421 163.763 45.2941 163.472 45.1195C163.239 44.9823 162.985 44.8076 162.711 44.5955C162.403 44.8658 162.058 45.0758 161.675 45.2255C161.297 45.3752 160.904 45.4501 160.496 45.4501C159.581 45.4501 158.787 45.1236 158.113 44.4707C157.398 43.7804 157.04 42.9175 157.04 41.882V36.1493H158.194V41.9194C158.194 42.6347 158.423 43.2273 158.881 43.6972C159.321 44.1505 159.86 44.3772 160.496 44.3772C160.979 44.3772 161.415 44.2275 161.806 43.928C161.59 43.7783 161.399 43.6619 161.232 43.5787C161.029 43.4789 160.819 43.4061 160.602 43.3604L160.958 42.2563C161.232 42.3103 161.507 42.4101 161.781 42.5557C161.993 42.668 162.241 42.8281 162.524 43.036Z" fill="black"/>
<path d="M173.027 45.2941H171.873V39.7112C171.873 38.6424 172.204 37.7566 172.865 37.0538C173.531 36.3468 174.344 35.9933 175.304 35.9933C176.286 35.9933 177.109 36.3531 177.774 37.0725C178.44 37.792 178.773 38.6632 178.773 39.6862V40.4535H177.606V39.5427C177.606 38.9023 177.406 38.3409 177.007 37.8585C176.571 37.3303 176.007 37.0663 175.317 37.0663C174.655 37.0663 174.109 37.3116 173.676 37.8023C173.244 38.2889 173.027 38.9106 173.027 39.6675V45.2941Z" fill="black"/>
<path d="M194.08 43.0984H192.595V45.2941H191.435V43.0984H189.139C188.091 43.0984 187.255 42.7782 186.631 42.1377C186.008 41.4973 185.696 40.624 185.696 39.5178C185.696 38.5863 186.026 37.7712 186.688 37.0725C187.37 36.3531 188.187 35.9933 189.139 35.9933C190.1 35.9933 190.929 36.3635 191.628 37.1037C192.273 37.7857 192.595 38.5301 192.595 39.3369V42.0192H194.08V43.0984ZM191.435 42.0192V39.4804C191.435 38.894 191.233 38.3596 190.83 37.8772C190.376 37.3366 189.813 37.0663 189.139 37.0663C188.524 37.0663 187.995 37.2888 187.555 37.7337C187.089 38.2037 186.856 38.7983 186.856 39.5178C186.856 40.283 187.068 40.8922 187.492 41.3455C187.921 41.7946 188.505 42.0192 189.245 42.0192H191.435Z" fill="black"/>
<path d="M29.041 8.24247C29.041 10.1635 29.5937 12.0264 30.8738 13.2489C34.2483 16.5381 60.6922 43.2587 60.6922 43.2587L71.9507 32.1978C71.9507 32.1978 44.0811 4.57492 41.7829 2.36276C40.5029 1.11114 38.6993 0.528991 36.7793 0.528991C32.5029 0.499883 29.041 3.96366 29.041 8.24247Z" fill="url(#paint0_linear)"/>
<path d="M45.304 37.6695C45.304 35.7484 44.7513 33.8856 43.4712 32.663C40.0967 29.3739 13.6528 2.65332 13.6528 2.65332L2.39453 13.7141C2.39453 13.7141 30.2639 41.337 32.5621 43.5492C33.8421 44.8008 35.6457 45.383 37.5657 45.383C41.8421 45.4121 45.304 41.9483 45.304 37.6695Z" fill="url(#paint1_linear)"/>
<path d="M66.1315 45.4132C70.4858 45.4132 74.0155 41.8816 74.0155 37.5251C74.0155 33.1686 70.4858 29.637 66.1315 29.637C61.7777 29.637 58.248 33.1686 58.248 37.5251C58.248 41.8816 61.7777 45.4132 66.1315 45.4132Z" fill="#263248"/>
<path d="M8.2118 16.2762C12.5659 16.2762 16.0956 12.7446 16.0956 8.38811C16.0956 4.03162 12.5659 0.5 8.2118 0.5C3.85777 0.5 0.328125 4.03162 0.328125 8.38811C0.328125 12.7446 3.85777 16.2762 8.2118 16.2762Z" fill="#263248"/>
<path d="M8.2118 45.4998C12.5659 45.4998 16.0956 41.9682 16.0956 37.6117C16.0956 33.2553 12.5659 29.7236 8.2118 29.7236C3.85777 29.7236 0.328125 33.2553 0.328125 37.6117C0.328125 41.9682 3.85777 45.4998 8.2118 45.4998Z" fill="#263248"/>
<defs>
<linearGradient id="paint0_linear" x1="71.1558" y1="42.3124" x2="21.7486" y2="-6.03125" gradientUnits="userSpaceOnUse">
<stop stop-color="#263248"/>
<stop offset="1" stop-color="#263248" stop-opacity="0"/>
</linearGradient>
<linearGradient id="paint1_linear" x1="-3.49916" y1="-2.83031" x2="45.2168" y2="44.65" gradientUnits="userSpaceOnUse">
<stop stop-color="#263248"/>
<stop offset="1" stop-color="#263248" stop-opacity="0"/>
</linearGradient>
</defs>
</svg>
