<svg xmlns="http://www.w3.org/2000/svg" width="721" height="382" viewBox="0 0 721 382" version="1.1"><path d="" stroke="none" fill="#ffbc4c" fill-rule="evenodd"/><path d="M 53.500 1.399 C 29.437 6.046, 10.071 23.040, 1.955 46.631 C 0.347 51.303, -0 55.035, -0 67.628 C -0 82.007, 0.176 83.424, 2.878 90.829 C 4.461 95.166, 7.323 101.142, 9.239 104.108 C 12.875 109.739, 64.553 161.462, 183.026 278.049 C 283.995 377.410, 276.714 370.542, 285.184 374.410 C 289.208 376.247, 294.957 378.324, 297.959 379.025 L 303.418 380.300 329.716 353.400 C 344.180 338.605, 361.190 321.042, 367.517 314.371 L 379.021 302.242 377.799 296.949 C 377.127 294.038, 374.985 288.592, 373.039 284.847 C 369.884 278.777, 361.041 269.489, 291.550 199.269 C 248.678 155.946, 189.053 95.943, 159.050 65.929 C 107.244 14.103, 104.123 11.174, 97 7.688 C 92.875 5.669, 86.800 3.329, 83.500 2.489 C 74.851 0.286, 61.733 -0.191, 53.500 1.399 M 294.500 2.022 C 278.390 5.256, 262.867 15.940, 253.133 30.493 C 240.077 50.014, 238.846 76.855, 249.989 99.048 C 251.544 102.146, 271.893 123.272, 316.886 168.500 C 352.450 204.250, 411.582 263.746, 448.289 300.714 C 519.606 372.537, 520.048 372.931, 535 378.121 C 539.996 379.855, 544.393 380.470, 554 380.781 C 568.402 381.248, 575.232 379.921, 586.500 374.466 C 615.627 360.366, 630.513 325.760, 620.926 294.433 C 616.024 278.414, 618.395 281.112, 545.129 208.162 C 507.933 171.126, 447.556 111.468, 410.958 75.587 C 338.663 4.711, 341.406 7.043, 325.590 3.015 C 317.307 0.905, 302.431 0.430, 294.500 2.022 M 717.120 4.356 C 716.293 5.352, 716.062 55.035, 716.247 191.606 L 716.500 377.500 718.675 377.810 L 720.850 378.119 721.175 351.810 C 721.354 337.339, 721.353 252.938, 721.174 164.250 C 720.835 -2.880, 720.903 -0.203, 717.120 4.356 M 49 249.571 C 30.842 254.323, 14.147 267.831, 5.916 284.431 L 1.500 293.338 1.193 313.625 L 0.886 333.911 3.833 340.924 C 11.323 358.750, 25.569 372.116, 44.165 378.763 C 50.775 381.125, 52.934 381.388, 66 381.418 C 79.230 381.448, 81.142 381.218, 87.835 378.796 C 98.394 374.974, 105.460 370.473, 113.466 362.466 C 126.348 349.585, 132.026 336.615, 132.783 318.348 C 133.658 297.200, 127.793 281.665, 113.554 267.416 C 104.720 258.576, 94.081 252.434, 82.540 249.510 C 74.969 247.592, 56.433 247.626, 49 249.571" stroke="none" fill="#fcbc4c" fill-rule="evenodd"/></svg>